<?xml version="1.0" encoding="iso-8859-1"?>
<!-- Generator: Adobe Illustrator 19.0.0, SVG Export Plug-In . SVG Version: 6.00 Build 0)  -->
<svg version="1.1" id="Layer_1" xmlns="http://www.w3.org/2000/svg" xmlns:xlink="http://www.w3.org/1999/xlink" x="0px" y="0px"
	 viewBox="0 0 512 512" style="enable-background:new 0 0 512 512;" xml:space="preserve">
<path style="fill:#A78966;" d="M259.95,511.555c-1.336,0.334-2.671,0.445-4.007,0.445c-1.336,0-2.671-0.111-4.007-0.445
	C77.745,467.923-9.185,301.969,7.511,166.734C20.202,63.889,89.767,0,189.161,0h133.565c99.505,0,169.183,63.332,181.761,165.398
	C521.183,301.301,434.364,467.923,259.95,511.555z"/>
<path style="fill:#816952;" d="M259.95,511.555c-1.336,0.334-2.671,0.445-4.007,0.445V0h66.783
	c99.505,0,169.183,63.332,181.761,165.398C521.183,301.301,434.364,467.923,259.95,511.555z"/>
<path style="fill:#D8AC55;" d="M322.726,332.13H189.161c-9.217,0-16.696,7.473-16.696,16.696v24.044
	c0,27.619,22.468,50.087,50.087,50.087h66.783c27.619,0,49.976-22.468,49.976-50.087v-24.044
	C339.31,339.603,331.943,332.13,322.726,332.13z"/>
<path style="fill:#CF944F;" d="M322.726,332.13h-66.783v90.827h33.391c27.619,0,49.976-22.468,49.976-50.087v-24.044
	C339.31,339.603,331.943,332.13,322.726,332.13z"/>
<path style="fill:#FFE477;" d="M396.743,277.927l-24.042,23.93v13.579c0,34.17-33.391,58.323-65.78,47.527l-50.978-17.03
	l-50.979,17.03c-15.47,5.12-31.943,2.56-45.077-6.901c-13.246-9.572-20.814-24.376-20.814-40.626c0,0,0-13.134,0-13.579
	l-23.93-23.93c-27.715-27.715-39.735-67.228-32.056-105.628c7.346-36.73,19.923-65.336,54.428-87.151
	c47.86-30.275,89.266-15.026,118.428-7.791c30.052-7.457,70.901-22.261,118.428,7.791c37.621,23.819,47.971,54.873,54.428,87.151
	C436.479,210.699,424.458,250.212,396.743,277.927z"/>
<path style="fill:#FFB655;" d="M396.743,277.927l-24.042,23.93v13.579c0,34.17-33.391,58.323-65.78,47.527l-50.978-17.03V77.357
	c30.052-7.457,70.901-22.261,118.428,7.791c37.621,23.819,47.971,54.873,54.428,87.151
	C436.479,210.699,424.458,250.212,396.743,277.927z"/>
<path style="fill:#957856;" d="M317.455,331.25l-44.927-14.936v-14.445l28.611-28.499c6.521-6.516,6.521-17.092,0-23.609
	c-6.521-6.521-17.087-6.521-23.609,0l-21.587,21.587l-21.587-21.587c-6.521-6.521-17.087-6.521-23.609,0
	c-6.521,6.516-6.521,17.092,0,23.609l28.499,28.499v14.445L194.43,331.25c-8.74,2.913-13.468,12.369-10.554,21.114
	c2.913,8.755,12.392,13.489,21.12,10.559l50.945-16.978l50.945,16.978c1.761,0.587,3.533,0.864,5.283,0.864
	c6.989,0,13.511-4.424,15.837-11.424C330.921,343.62,326.193,334.163,317.455,331.25z"/>
<path style="fill:#816952;" d="M306.89,362.923c1.761,0.587,3.533,0.864,5.283,0.864c6.989,0,13.511-4.424,15.837-11.424
	c2.913-8.744-1.815-18.202-10.554-21.114l-44.927-14.936v-14.445l28.611-28.499c6.521-6.516,6.521-17.092,0-23.609
	c-6.521-6.521-17.087-6.521-23.609,0l-21.587,21.587v74.597L306.89,362.923z"/>
<circle style="fill:#696B6F;" cx="189.24" cy="183.886" r="16.696"/>
<circle style="fill:#616267;" cx="322.805" cy="183.886" r="16.696"/>
<g>
</g>
<g>
</g>
<g>
</g>
<g>
</g>
<g>
</g>
<g>
</g>
<g>
</g>
<g>
</g>
<g>
</g>
<g>
</g>
<g>
</g>
<g>
</g>
<g>
</g>
<g>
</g>
<g>
</g>
</svg>
