<?xml version="1.0" encoding="iso-8859-1"?>
<!-- Generator: Adobe Illustrator 19.0.0, SVG Export Plug-In . SVG Version: 6.00 Build 0)  -->
<svg version="1.1" id="Layer_1" xmlns="http://www.w3.org/2000/svg" xmlns:xlink="http://www.w3.org/1999/xlink" x="0px" y="0px"
	 viewBox="0 0 512 512" style="enable-background:new 0 0 512 512;" xml:space="preserve">
<path style="fill:#ED2601;" d="M173.308,249.854l66.19-98.73c3.22-4.802,9.536-6.61,14.911-3.979
	c4.084,1.998,6.522,6.313,6.522,10.861v145.767l58.654-58.655c2.197-2.195,5.174-3.429,8.279-3.429h167.834
	c1.948,0,3.705-1.206,4.375-3.035c15.087-41.186,11.807-69.484,11.232-78.921c-4.287-70.37-57.152-127.651-127.651-127.651
	c-36.439,0-69.31,15.27-92.57,39.759l-35.082,41.733L220.918,71.84c-23.258-24.488-56.13-39.759-92.57-39.759
	c-70.5,0-123.364,57.282-127.651,127.651c-0.613,10.061-4.305,41.556,14.467,87.253c0.715,1.741,2.425,2.868,4.308,2.868h153.836
	V249.854z"/>
<path style="fill:#C91C00;" d="M511.304,159.734c-4.287-70.37-57.152-127.651-127.651-127.651c-4.755,0-9.447,0.266-14.067,0.773
	c63.414,7.002,109.676,61.244,113.674,126.879c0.588,9.667,4.016,39.126-12.368,81.955h24.806c1.948,0,3.705-1.206,4.375-3.035
	C515.159,197.468,511.879,169.17,511.304,159.734z"/>
<path id="SVGCleanerId_0" style="fill:#ED2601;" d="M334.646,265.104c-1.238,0-2.425,0.491-3.301,1.368l-73.842,73.845
	c-2.24,2.24-5.235,3.429-8.282,3.429c-2.31,0-4.651-0.682-6.715-2.118c-3.218-2.24-4.99-6.039-4.99-9.959V211.48
	c0-4.613-5.978-6.431-8.546-2.599l-39.69,59.201c-2.174,3.241-5.822,5.188-9.725,5.188H35.801c-3.611,0-5.856,3.917-4.03,7.033
	c32.313,55.194,96.747,124.652,224.23,199.616c133.954-78.769,198.296-151.458,228.906-207.908c1.69-3.118-0.556-6.906-4.103-6.906
	H334.646V265.104z"/>
<g>
	<path id="SVGCleanerId_0_1_" style="fill:#ED2601;" d="M334.646,265.104c-1.238,0-2.425,0.491-3.301,1.368l-73.842,73.845
		c-2.24,2.24-5.235,3.429-8.282,3.429c-2.31,0-4.651-0.682-6.715-2.118c-3.218-2.24-4.99-6.039-4.99-9.959V211.48
		c0-4.613-5.978-6.431-8.546-2.599l-39.69,59.201c-2.174,3.241-5.822,5.188-9.725,5.188H35.801c-3.611,0-5.856,3.917-4.03,7.033
		c32.313,55.194,96.747,124.652,224.23,199.616c133.954-78.769,198.296-151.458,228.906-207.908c1.69-3.118-0.556-6.906-4.103-6.906
		H334.646V265.104z"/>
</g>
<path style="fill:#C91C00;" d="M460.42,265.104c-32.857,54.721-97.241,123.062-222.51,196.723
	c-66.504-39.106-115.85-76.714-152.428-111.581c37.889,39.808,92.347,83.704,170.519,129.672
	C389.955,401.149,454.297,328.46,484.907,272.01c1.69-3.118-0.556-6.906-4.103-6.906H460.42z"/>
<g>
</g>
<g>
</g>
<g>
</g>
<g>
</g>
<g>
</g>
<g>
</g>
<g>
</g>
<g>
</g>
<g>
</g>
<g>
</g>
<g>
</g>
<g>
</g>
<g>
</g>
<g>
</g>
<g>
</g>
</svg>
