<?xml version="1.0" encoding="iso-8859-1"?>
<!-- Generator: Adobe Illustrator 19.0.0, SVG Export Plug-In . SVG Version: 6.00 Build 0)  -->
<svg version="1.1" id="Layer_1" xmlns="http://www.w3.org/2000/svg" xmlns:xlink="http://www.w3.org/1999/xlink" x="0px" y="0px"
	 viewBox="0 0 512 512" style="enable-background:new 0 0 512 512;" xml:space="preserve">
<path style="fill:#C1B9B0;" d="M114.383,67.748H92.596V43.704c0-4.079,4.262-6.732,7.883-4.908l0,0
	c8.522,4.292,13.905,13.067,13.905,22.664V67.748z"/>
<path style="fill:#5B564F;" d="M506.553,255.977v186.721H495.66c-12.033,0-21.787-9.754-21.787-21.787V234.189h10.894
	C496.799,234.189,506.553,243.944,506.553,255.977z"/>
<path style="fill:#E4DEDA;" d="M484.766,221.386v98.767c0,6.061-4.877,10.974-10.894,10.974h-23.695
	c-6.756,0-13.477,0.514-20.126,1.492l-9.13,55.183c-0.125,0.756-0.467,1.483-0.963,2.174c-7.024,9.798-11.448,21.235-11.448,33.321
	v28.545c0,6.061-4.877,10.974-10.894,10.974v10.974v10.974h-32.681l7.883-15.882c1.845-3.718,5.617-6.067,9.743-6.067h4.161v-9.62
	v-29.899c0-12.085-4.424-23.524-11.448-33.321c-0.496-0.692-0.838-1.418-0.963-2.174l-6.434-38.885
	c-16.139,2.614-35.967,4.158-57.412,4.158c-13.108,0-25.609-0.578-37.038-1.623v34.546c0,1.515-0.301,2.959-0.845,4.271
	c-5.977,14.423-9.908,29.643-9.908,45.303v16.27c0,6.061-4.814,10.974-10.752,10.974h-10.752v-27.244
	c0-15.661-3.93-30.88-9.908-45.303c-0.545-1.313-0.845-2.756-0.845-4.271v-42.197c-1.979-0.625-3.824-1.273-5.507-1.946
	c-17.267-6.887-35.583-10.727-54.154-10.727h-1.906c-12.033,0-21.787-9.826-21.787-21.948v-42.446
	c0-8.123-2.238-16.088-6.464-23.006l-43.975-71.989c-1.983-3.245-5.495-5.222-9.278-5.222H17.793
	c-6.818-0.001-12.346-5.733-12.346-12.804c0-15.997,7.709-30.937,20.545-39.81l88.391-61.109V32.73c0-4.08,4.262-6.732,7.883-4.908
	c3.38,1.703,6.256,4.119,8.509,7.004h23.036c14.79,0,29.005,6.001,39.216,16.781c18.734,19.776,30.29,46.77,30.293,76.488
	c0,0.57,0.183,1.124,0.528,1.576l19.754,25.87l23.292,32.922h185.191C470.135,188.463,484.766,203.204,484.766,221.386z"/>
<path style="fill:#D1C9C1;" d="M484.766,303.692v16.461c0,6.061-4.877,10.974-10.894,10.974l-9.376,56.675
	c-0.125,0.756-0.467,1.483-0.963,2.174c-7.024,9.798-11.448,21.235-11.448,33.321v28.545c0,6.061-4.877,10.974-10.894,10.974v21.948
	h-32.681l7.883-15.882c1.845-3.718,5.617-6.067,9.743-6.067h4.161v-39.52c0-11.761-4.196-22.903-10.894-32.522
	c-6.697,9.619-10.894,20.761-10.894,32.522v28.545c0,6.061-4.877,10.974-10.894,10.974v10.974v10.974h-32.681l7.883-15.882
	c1.845-3.718,5.617-6.067,9.743-6.067h4.161v-9.62v-29.899c0-12.085-4.424-23.524-11.448-33.321
	c-0.496-0.692-0.838-1.418-0.963-2.174l-6.434-38.885c-16.139,2.614-35.967,4.158-57.412,4.158c-33.059,0-62.029-3.632-79.789-9.243
	l-0.259,42.166c0,1.515-0.301,2.959-0.845,4.271c-5.977,14.423-9.908,29.643-9.908,45.303v16.27c0,6.061-4.814,10.974-10.752,10.974
	v21.948h-32.257l7.78-15.882c1.821-3.718,5.545-6.067,9.617-6.067h4.107v-27.244c0-15.661-3.93-30.88-9.908-45.303
	c-0.545-1.313-0.845-2.756-0.845-4.271v-53.845c-5.513-0.672-11.071-1.025-16.652-1.025h-1.904
	c-12.033,0-21.787-9.826-21.787-21.948v-42.446c0-8.123-2.238-16.088-6.464-23.006l-43.975-71.988
	c-1.983-3.245-5.495-5.222-9.278-5.222H17.793c-6.818-0.001-12.346-5.733-12.346-12.804c0-15.997,7.709-30.937,20.545-39.81
	l3.513-2.429c-1.482,4.72-2.271,9.707-2.271,14.804c0,7.071,5.527,12.803,12.346,12.803h69.554c3.783,0,7.295,1.977,9.278,5.222
	l43.976,71.989c4.227,6.919,6.464,14.883,6.464,23.006v42.446c0,12.121,9.754,21.948,21.787,21.948h1.907
	c18.571,0,36.887,3.84,54.154,10.727c16.789,6.696,48.812,11.22,85.554,11.22s68.765-4.525,85.554-11.22
	c17.267-6.887,35.583-10.727,54.154-10.727h12.802V303.692z"/>
<path style="fill:#777269;" d="M194.056,462.817h14.86v21.948h-32.257l7.78-15.882C186.26,465.166,189.984,462.817,194.056,462.817z
	"/>
<g>
	<path style="fill:#968C86;" d="M419.404,390.775c-6.697,9.619-10.894,20.761-10.894,32.522v28.545
		c0,6.061-4.877,10.974-10.894,10.974v10.974v10.974h-32.681l7.883-15.882c1.845-3.718,5.617-6.067,9.743-6.067h4.161v-9.62v-29.899
		c0-12.085-4.424-23.524-11.448-33.321c-0.496-0.692-0.838-1.418-0.963-2.174l-6.434-38.885c11.513-1.865,21.152-4.275,28.143-7.063
		c4.432-1.767,8.932-3.33,13.488-4.683l8.376,50.63c0.125,0.756,0.467,1.483,0.963,2.174
		C419.039,390.24,419.219,390.509,419.404,390.775z"/>
	<path style="fill:#968C86;" d="M280.16,328.125c-2.608,7.589-4.798,15.374-6.527,23.333c-0.093-0.009-0.203,34.54-0.203,34.54
		c0,1.515-0.301,2.959-0.845,4.271c-5.977,14.423-9.908,29.643-9.908,45.303v16.27c0,6.061-4.814,10.974-10.752,10.974v21.948
		h-32.257l7.78-15.882c1.821-3.718,5.545-6.067,9.617-6.067h4.107v-27.244c0-15.661-3.93-30.88-9.908-45.303
		c-0.544-1.313-0.845-2.756-0.845-4.27v-0.001l0.259-42.166c1.111-5.302,2.405-10.535,3.842-15.707L280.16,328.125L280.16,328.125z"
		/>
</g>
<g>
	<path style="fill:#5E574E;" d="M237.066,462.817h14.86v21.948h-32.257l7.78-15.882
		C229.269,465.166,232.993,462.817,237.066,462.817z"/>
	<path style="fill:#5E574E;" d="M382.333,462.817h14.86v21.948h-32.257l7.78-15.882
		C374.538,465.166,378.261,462.817,382.333,462.817z"/>
</g>
<g>
	<path style="fill:#777269;" d="M426.136,462.817c-4.126,0-7.898,2.349-9.743,6.067l-7.883,15.882h32.681v-21.948L426.136,462.817
		L426.136,462.817z"/>
	<path style="fill:#777269;" d="M266.224,188.463c-38.167,38.914-65.673,88.45-77.771,143.815
		c-5.849-0.756-11.75-1.151-17.677-1.151h-1.907c-10.157,0-18.666-7.012-21.079-16.486c12.676-51.838,37.173-98.983,70.457-138.372
		H256L266.224,188.463z"/>
	<path style="fill:#777269;" d="M198.128,88.311v50.22h-5.745c-24.254,26.903-44.756,57.298-60.688,90.344l-26.534-43.436
		c20.273-35.954,45.575-68.654,74.943-97.127C180.103,88.311,198.128,88.311,198.128,88.311z"/>
	<path style="fill:#777269;" d="M458.659,189.105c-2.081-0.418-4.232-0.642-6.435-0.642H333.986
		c-52.005,35.898-89.833,91.104-103.307,155.369c10.724,3.374,25.59,6.042,42.954,7.626
		C292.767,263.418,367.352,196.286,458.659,189.105z"/>
	<path style="fill:#777269;" d="M484.766,234.189h-9.26v0.005c-0.121,0-0.242-0.005-0.363-0.005
		c-74.291,0-136.937,50.224-156.308,118.805c16.636-0.316,32.089-1.559,45.319-3.5c18.458-42.057,60.23-71.408,108.811-71.408
		c3.983,0,7.919,0.202,11.801,0.586v98.181c0,12.121,9.754,21.948,21.787,21.948V256.138
		C506.553,244.015,496.799,234.189,484.766,234.189z"/>
</g>
<g>
	<path style="fill:#5B564F;" d="M149.789,195.67c-6.549,10.732-12.601,21.807-18.095,33.205l-26.534-43.436
		c6.018-10.672,12.488-21.05,19.367-31.123L149.789,195.67z"/>
	<path style="fill:#5B564F;" d="M191.489,303.692c-12.033,0-21.787-9.826-21.787-21.948v-29.228
		c-8.955,19.293-16.161,39.574-21.413,60.639c1.86,10.22,10.729,17.972,21.413,17.972h1.2h0.707c5.695,0,11.365,0.365,16.989,1.064
		c2.118-9.676,4.715-19.168,7.748-28.462c-0.983-0.022-1.965-0.038-2.949-0.038L191.489,303.692L191.489,303.692z"/>
	<path style="fill:#5B564F;" d="M239.651,311.807c-3.664,10.381-6.685,21.067-8.983,32.025c10.724,3.374,25.59,6.042,42.954,7.626
		c2.156-9.916,5.021-19.566,8.528-28.896c-14.77-1.97-27.034-4.782-35.459-8.143C244.362,313.492,242.015,312.623,239.651,311.807z"
		/>
	<path style="fill:#5B564F;" d="M332.255,325.64c-0.989,0-1.974-0.004-2.957-0.011c-4.262,8.714-7.78,17.861-10.464,27.365
		c0.004,0,0.01,0,0.014,0c12.443-0.236,24.223-0.992,34.905-2.17c0.047-0.005,0.095-0.011,0.142-0.015
		c1.739-0.193,8.629-1.075,10.256-1.314h0.001c4.225-9.624,9.682-18.573,16.15-26.666
		C366.103,324.617,349.715,325.64,332.255,325.64z"/>
</g>
<path style="fill:#A59C95;" d="M130.775,34.825h23.036c14.79,0,29.005,6.001,39.216,16.781c18.734,19.776,30.29,46.77,30.293,76.488
	c0,0.57,0.183,1.124,0.528,1.576l19.754,25.87l23.292,32.923h-21.787h-1.505c-10.146,0-19.717-4.747-25.904-12.849l-19.753-25.869
	c-4.728-6.191-7.311-13.782-7.306-21.592c0.021-35.404-23.062-65.205-54.468-74.126v-3.542
	C136.17,44.696,134.201,39.213,130.775,34.825z"/>
<path style="fill:#C6BCB5;" d="M266.894,188.463h-12.528l-23.292-32.922l-19.754-25.87c-0.344-0.452-0.528-1.007-0.528-1.576
	c-0.003-29.719-11.559-56.712-30.293-76.488c-10.211-10.779-24.426-16.781-39.216-16.781h12.528c14.79,0,29.005,6.001,39.216,16.781
	c18.734,19.777,30.29,46.77,30.293,76.488c0,0.57,0.183,1.124,0.528,1.576l19.754,25.87L266.894,188.463z"/>
<path style="fill:#5B564F;" d="M5.447,153.712c0,7.071,5.527,12.803,12.346,12.803h20.335v-61.003l-12.135,8.39
	C13.156,122.776,5.447,137.714,5.447,153.712z"/>
<path style="fill:#777269;" d="M38.128,105.512v34.214h-9.441c-6.818,0-12.346-4.34-12.346-9.694c0-3.019,0.499-5.982,1.421-8.84
	c2.435-2.724,5.183-5.182,8.231-7.289L38.128,105.512z"/>
<path style="fill:#D1C9C1;" d="M103.489,95.184c0-9.091,7.316-16.461,16.34-16.461s16.34,7.37,16.34,16.461
	s-7.316,16.461-16.34,16.461S103.489,104.274,103.489,95.184z"/>
<path style="fill:#777269;" d="M119.83,100.671c3.008,0,5.447-2.457,5.447-5.487c0-3.031-2.439-5.487-5.447-5.487
	s-5.447,2.457-5.447,5.487C114.383,98.214,116.822,100.671,119.83,100.671z"/>
<path d="M512,255.978v186.721c0,3.009-2.438,5.447-5.447,5.447H495.66c-15.017,0-27.234-12.217-27.234-27.234v-28.46
	c-0.145,0.234-0.298,0.466-0.463,0.695c-6.825,9.52-10.431,19.945-10.431,30.152v28.546c0,7.136-4.554,13.225-10.894,15.483v17.438
	c0,3.009-2.438,5.447-5.447,5.447h-32.681c-1.885,0-3.636-0.975-4.629-2.576c-0.544-0.876-0.818-1.872-0.818-2.87
	c0-0.828,0.188-1.657,0.568-2.422l7.883-15.882c2.589-5.219,7.622-8.599,13.336-9.042v-34.123c0-7.318-1.865-14.772-5.447-21.916
	c-3.582,7.145-5.447,14.597-5.447,21.916v28.546c0,3.009-2.438,5.447-5.447,5.447c-3.009,0-5.447-2.438-5.447-5.447v-28.546
	c0-11.117,3.431-22.371,9.955-32.742c-0.231-0.612-0.4-1.233-0.504-1.863l-7.349-44.417c-2.399,0.82-4.781,1.703-7.124,2.637
	c-6.251,2.494-14.275,4.655-23.905,6.446l5.522,33.377c0.012,0.021,0.027,0.044,0.048,0.071
	c8.154,11.373,12.466,23.993,12.466,36.49v34.073h2.542c3.009,0,5.447,2.438,5.447,5.447c0,3.009-2.438,5.447-5.447,5.447h-12.149
	c-2.07,0-3.934,1.165-4.864,3.04l-3.979,8.014h17.361c3.009,0,5.447,2.438,5.447,5.447s-2.438,5.447-5.447,5.447h-26.145
	c-1.885,0-3.636-0.975-4.629-2.576c-0.993-1.602-1.088-3.604-0.249-5.291l7.883-15.882c2.589-5.219,7.622-8.599,13.336-9.042
	v-34.123c0-10.207-3.607-20.631-10.427-30.148c-1.012-1.414-1.654-2.912-1.91-4.457l-5.557-33.586
	c-15.865,2.239-34.028,3.415-52.915,3.415c-10.915,0-21.496-0.387-31.464-1.127c-0.049,7.144-0.099,19.562-0.127,28.62
	c0,2.165-0.417,4.288-1.24,6.29c-0.007,0.016-0.013,0.032-0.021,0.048c-6.387,15.414-9.493,29.552-9.493,43.22v16.27
	c0,7.119-4.491,13.193-10.752,15.466v17.457c0,3.009-2.439,5.447-5.447,5.447h-32.257c-1.88,0-3.628-0.97-4.622-2.564
	c-0.548-0.878-0.825-1.878-0.825-2.881c0-0.818,0.184-1.639,0.556-2.397l7.78-15.882c2.555-5.215,7.521-8.598,13.169-9.061v-21.853
	c0-10.242-1.744-20.748-5.306-31.857c-3.562,11.108-5.305,21.615-5.305,31.857v16.27c0,3.009-2.439,5.447-5.447,5.447
	c-3.008,0-5.447-2.438-5.447-5.447v-16.27c0-15.128,3.377-30.628,10.323-47.389c0.285-0.688,0.43-1.425,0.43-2.186v-38.144
	l-15.563-4.659c-2.882-0.863-4.519-3.899-3.656-6.781c0.863-2.881,3.902-4.519,6.78-3.655l14.084,4.218
	c10.794-46.218,34.093-88.388,67.615-122.271c2.117-2.14,5.563-2.156,7.703-0.041c2.138,2.116,2.157,5.564,0.041,7.703
	c-32.24,32.586-54.604,73.177-64.882,117.653c18.012,4.792,44.894,7.607,73.372,7.607c1.43,0,2.856-0.007,4.278-0.021
	c19.277-62.522,72.774-108.36,137.359-117.288c2.98-0.412,5.729,1.67,6.142,4.65c0.412,2.979-1.67,5.73-4.65,6.142
	c-59.182,8.18-108.41,49.529-127.325,106.23c14.672-0.537,28.536-1.825,40.738-3.801c0.001,0,0.001,0,0.002,0
	c11.108-1.801,20.444-4.134,26.993-6.746c4.562-1.819,9.257-3.449,13.956-4.844c1.498-0.444,3.114-0.224,4.44,0.603
	c1.325,0.83,2.23,2.187,2.484,3.729l8.348,50.454c0.012,0.021,0.027,0.044,0.048,0.071c0.138,0.193,0.278,0.395,0.417,0.598
	l0.175,0.255c0.001,0.001,0.001,0.002,0.002,0.002c7.766,11.153,11.87,23.476,11.87,35.635v34.073h5.447
	c3.003,0,5.447-2.479,5.447-5.527v-28.546c0-12.498,4.312-25.117,12.468-36.495c0.018-0.025,0.033-0.048,0.045-0.066l8.299-50.164
	h-17.272c-6.356,0-12.862,0.483-19.333,1.435c-2.976,0.449-5.744-1.619-6.182-4.595c-0.438-2.976,1.619-5.744,4.596-6.182
	c6.996-1.029,14.034-1.552,20.919-1.552h23.593c0.056-0.002,0.109-0.002,0.163,0c2.974-0.035,5.384-2.501,5.384-5.526V283.71
	c-2.124-0.119-4.249-0.179-6.354-0.179c-33.461,0-65.056,14.784-86.682,40.561c-1.93,2.304-5.368,2.607-7.673,0.671
	c-2.304-1.932-2.606-5.369-0.671-7.673c23.701-28.25,58.337-44.452,95.026-44.452c2.107,0,4.23,0.054,6.354,0.163v-51.417
	c0-13.032-9.04-23.974-21.125-26.779c-75.278,6.267-141.858,55.989-169.794,126.889c-1.104,2.8-4.268,4.17-7.064,3.071
	c-2.799-1.104-4.173-4.266-3.07-7.064c14.426-36.611,38.675-68.483,70.122-92.168c18.201-13.709,38.324-24.278,59.619-31.425
	H268.523c-29.351,30.379-52.121,66.674-65.921,105.106c-1.016,2.832-4.134,4.302-6.968,3.287c-2.831-1.017-4.302-4.136-3.286-6.966
	c13.188-36.727,34.255-71.556,61.265-101.425h-10.013c-11.763,0-23.064-5.604-30.232-14.99l-19.753-25.87
	c-1.066-1.395-2.038-2.858-2.912-4.375c-13.78,16.01-26.261,33.231-37.17,51.293c-1.555,2.576-4.902,3.403-7.478,1.846
	c-2.575-1.556-3.402-4.904-1.846-7.478c12.21-20.217,26.335-39.409,42.013-57.088c-0.681-2.977-1.033-6.033-1.031-9.099
	c0.019-32.105-20.751-60.429-50.509-68.883c-2.342-0.665-3.959-2.804-3.959-5.24v-3.543c0-4.433-1.507-8.804-4.242-12.308
	c-1.824-2.336-4.065-4.183-6.665-5.491l0.013,20.111c0,1.789-0.878,3.463-2.35,4.479l-1.026,0.71
	c-0.129,0.097-0.261,0.19-0.399,0.276l-72.481,50.11v52.7h43.772c5.64,0,10.975,3.001,13.926,7.83l3.677,6.019
	c12.691-21.442,27.287-41.863,43.47-60.807c1.953-2.287,5.392-2.558,7.679-0.605c2.288,1.953,2.558,5.391,0.604,7.679
	c-17.032,19.942-32.263,41.56-45.299,64.296l33.846,55.406c4.751,7.778,7.263,16.715,7.263,25.845v13.112
	c9.451-26.62,22.15-51.958,37.935-75.649c1.668-2.503,5.05-3.179,7.554-1.513c2.503,1.668,3.18,5.05,1.513,7.554
	c-21.322,32.001-36.828,67.104-46.099,104.353c2.223,6.449,8.304,11.09,15.438,11.09h1.907c0.005,0,0.012,0,0.019,0
	c6.396,0,11.402,0.307,17.259,1.061c0.529,0.061,1.036,0.198,1.508,0.399h0.001l0.001,0.001c0.747,0.318,1.403,0.795,1.928,1.386
	c0.552,0.618,0.966,1.364,1.191,2.187c0.132,0.483,0.199,0.99,0.192,1.51v53.774c0,0.761,0.145,1.497,0.43,2.185
	c6.946,16.764,10.323,32.265,10.323,47.39v21.798h2.415c3.008,0,5.447,2.438,5.447,5.447c0,3.009-2.439,5.447-5.447,5.447h-11.97
	c-2.003,0-3.814,1.156-4.726,3.015l-3.938,8.039h15.898c3.008,0,5.447,2.438,5.447,5.447s-2.439,5.447-5.447,5.447H176.66
	c-1.88,0-3.628-0.97-4.622-2.564s-1.097-3.591-0.27-5.278l7.78-15.882c2.555-5.215,7.521-8.598,13.169-9.061v-21.853
	c0-13.667-3.106-27.804-9.493-43.219c-0.837-2.017-1.26-4.156-1.26-6.356v-48.967c-3.563-0.319-7.058-0.458-11.187-0.458
	c-0.008-0.001-0.014-0.001-0.019,0h-1.907c-15.017,0-27.234-12.289-27.234-27.394v-42.446c0-7.127-1.959-14.1-5.665-20.167
	l-43.976-71.989c-1-1.638-2.731-2.616-4.63-2.616H17.793C7.982,171.963,0,163.775,0,153.713c0-17.822,8.558-34.379,22.895-44.29
	l12.065-8.34c0.049-0.035,0.099-0.07,0.149-0.103l52.04-35.978V43.705c0-3.831,1.942-7.315,5.196-9.319
	c3.236-1.992,7.192-2.16,10.583-0.452c2.162,1.088,4.177,2.433,6.008,3.99V32.73c0-3.832,1.942-7.316,5.196-9.321
	c3.236-1.992,7.192-2.159,10.584-0.453c3.231,1.628,6.102,3.781,8.563,6.422h20.53c16.311,0,32.046,6.737,43.17,18.481
	c20.275,21.405,31.54,49.525,31.781,79.272l19.168,25.104c0.04,0.052,0.08,0.106,0.117,0.159l21.665,30.621h182.373
	c2.423,0,4.791,0.229,7.091,0.665c0.401,0.037,0.791,0.119,1.162,0.241c17.069,3.805,29.875,19.159,29.875,37.463v7.903
	C502.627,231.821,512,242.825,512,255.978z M32.681,115.901l-3.592,2.483c-11.394,7.877-18.196,21.084-18.196,35.329
	c0,4.057,3.095,7.356,6.899,7.356h14.888V115.901z M106.393,51.696c-1.925-3.429-4.842-6.261-8.364-8.034l0.009,13.812
	L106.393,51.696z M256.368,183.018l-17.154-24.247l-19.696-25.795c-1.061-1.388-1.646-3.122-1.646-4.88
	c-0.002-27.304-10.23-53.139-28.801-72.743c-9.078-9.583-21.929-15.079-35.262-15.079h-13.943c1.097,3.126,1.695,6.425,1.745,9.754
	c32.294,11.077,54.492,42.609,54.471,78.129c-0.001,2.563,0.333,5.116,0.98,7.587c0.45,0.755,0.703,1.6,0.754,2.455
	c1.044,2.949,2.544,5.74,4.454,8.241l19.752,25.869c5.12,6.704,13.186,10.707,21.575,10.707h12.768V183.018z M246.478,468.266
	h-9.413c-2.003,0-3.814,1.156-4.726,3.015l-3.938,8.039h18.077L246.478,468.266L246.478,468.266z M267.983,356.407
	c-11.988-1.271-22.814-3.089-31.901-5.389l-0.215,34.988c0.001,0.759,0.146,1.492,0.43,2.179
	c6.946,16.764,10.323,32.265,10.323,47.391v21.798h5.305c2.926,0,5.306-2.479,5.306-5.527v-16.27
	c0-15.128,3.377-30.628,10.323-47.389c0.285-0.688,0.43-1.425,0.43-2.186v-29.594H267.983z M435.745,468.266h-9.607
	c-2.07,0-3.934,1.165-4.864,3.04l-3.979,8.013h18.451V468.266z M501.106,255.978c0-7.102-4.553-13.158-10.894-15.407v38.032
	c0,0.042,0,0.086,0,0.13v41.423c0,7.136-4.553,13.224-10.894,15.482v85.275c0,9.01,7.33,16.34,16.34,16.34h5.447V255.978z"/>
<g>
</g>
<g>
</g>
<g>
</g>
<g>
</g>
<g>
</g>
<g>
</g>
<g>
</g>
<g>
</g>
<g>
</g>
<g>
</g>
<g>
</g>
<g>
</g>
<g>
</g>
<g>
</g>
<g>
</g>
</svg>
